<svg xmlns="http://www.w3.org/2000/svg" viewBox="0 0 860.91 395.23"><rect x="619.92" width="240.99" height="395.23" fill="none"/><path d="M640.17,43.38V120.5h81.94V351.85h77.12V120.5L722.11,43.38Zm102.39,0,77.12,77.12h61.49V43.38Z" transform="translate(-20.26)"/><rect x="309.98" width="270.05" height="395.23" fill="none"/><path d="M330.23,351.85h77.12V288.43l-77.12-77.12Zm177.33-92.72a108.47,108.47,0,0,0,60.82-184A107.75,107.75,0,0,0,491.7,43.38h-141L427.8,120.5h63.9a31.33,31.33,0,0,1,0,62.66H407.35V120.5L330.23,43.38V190.86L407.35,268l22.79,22.79,61.08,61.08H600.28Z" transform="translate(-20.26)"/><rect width="269.91" height="395.23" fill="none"/><path d="M20.26,351.85H97.37V260.27L20.26,183.16ZM258.41,75.14a107.77,107.77,0,0,0-76.69-31.76H40.7l77.12,77.12h63.9a31.33,31.33,0,1,1,0,62.66H97.37V120.5L20.26,43.38V162.71l97.56,97.56h63.9A108.45,108.45,0,0,0,258.41,75.14Z" transform="translate(-20.26)"/></svg>